<svg width="80" height="80" viewBox="0 0 80 80" fill="none" xmlns="http://www.w3.org/2000/svg">
<circle cx="40" cy="40" r="40" fill="#272343"/>
<path d="M22 17.9422C25.4506 17.4071 29.5496 17 34.0432 17C42.1792 17 47.9753 18.9484 51.8149 22.6417C55.7222 26.3349 58 31.5753 58 38.892C58 46.2088 55.7842 52.3215 51.6852 56.4859C47.5862 60.7143 40.8147 63 32.2841 63C28.2471 63 24.8642 62.7964 22 62.4649L22 17.9422ZM27.6608 57.969C29.0929 58.2366 31.179 58.3064 33.3892 58.3064C45.5001 58.3064 52.0742 51.3212 52.0742 39.1014C52.1419 28.4229 46.2782 21.6413 34.3026 21.6413C31.3707 21.6413 29.1605 21.9088 27.6608 22.2462V57.9748V57.969Z" fill="#F37341"/>
</svg>
